<?xml version="1.0" encoding="utf-8"?>
<!-- Generator: Adobe Illustrator 27.0.0, SVG Export Plug-In . SVG Version: 6.00 Build 0)  -->
<svg version="1.1" id="圖層_1" xmlns="http://www.w3.org/2000/svg" xmlns:xlink="http://www.w3.org/1999/xlink" x="0px" y="0px"
	 viewBox="0 0 90 90" style="enable-background:new 0 0 90 90;" xml:space="preserve">
<style type="text/css">
	.st0{fill:#FFFFFF;}
</style>
<g>
	<path class="st0" d="M45.14,90c-24.81,0-45-20.19-45-45s20.19-45,45-45c24.81,0,45,20.19,45,45S69.95,90,45.14,90 M45.14,2
		c-23.71,0-43,19.29-43,43c0,23.71,19.29,43,43,43c23.71,0,43-19.29,43-43C88.14,21.29,68.85,2,45.14,2"/>
	<rect x="28.01" y="4.05" class="st0" width="2" height="81.34"/>
	<rect x="43.59" y="62.45" class="st0" width="2" height="25.93"/>
	<rect x="1.14" y="45.68" class="st0" width="88.12" height="2"/>
	
		<rect x="16.34" y="19.49" transform="matrix(0.731 -0.6824 0.6824 0.731 -19.3554 21.3027)" class="st0" width="2" height="31.41"/>
	
		<rect x="59.87" y="58.53" transform="matrix(0.731 -0.6824 0.6824 0.731 -32.7842 60.9166)" class="st0" width="2" height="27.01"/>
	
		<rect x="3.26" y="55.95" transform="matrix(0.7071 -0.7071 0.7071 0.7071 -35.0626 29.2569)" class="st0" width="29.06" height="2"/>
	<rect x="19.99" y="26.2" transform="matrix(0.7071 -0.7071 0.7071 0.7071 -5.3089 41.5816)" class="st0" width="55.1" height="2"/>
	
		<rect x="36.28" y="29.17" transform="matrix(0.7071 -0.7071 0.7071 0.7071 -3.8628 51.0029)" class="st0" width="46.71" height="2"/>
	
		<rect x="36.07" y="66.84" transform="matrix(0.706 -0.7082 0.7082 0.706 -28.6437 66.6761)" class="st0" width="59.85" height="2"/>
	<rect x="29.76" y="34.2" class="st0" width="58.29" height="2"/>
	<rect x="29.76" y="53.5" class="st0" width="58.51" height="2"/>
	<rect x="29.76" y="61.45" class="st0" width="56.23" height="2"/>
	<rect x="29.76" y="22.72" class="st0" width="53.9" height="2"/>
	<path class="st0" d="M30.01,20.37l-0.35,3.35l2.7-1C31.06,22.72,30.01,21.67,30.01,20.37"/>
	<path class="st0" d="M30.01,31.84l-0.7,3.18l3.05-0.82C31.06,34.2,30.01,33.14,30.01,31.84"/>
	<path class="st0" d="M2.14,43.33L1.6,46.26l2.9-0.58C3.2,45.68,2.14,44.62,2.14,43.33"/>
	<path class="st0" d="M88.11,43.43l0.34,2.47l-2.59-0.21C87.1,45.68,88.11,44.67,88.11,43.43"/>
	<path class="st0" d="M87.66,35.88l-2.28,0.32c1.11,0,2.04,0.82,2.21,1.89l0.03,0L87.66,35.88z"/>
	<path class="st0" d="M83.98,24.4l-2.28,0.32c0.94,0,1.68,0.6,2.12,1.49l0.12-0.07L83.98,24.4z"/>
	<path class="st0" d="M87.61,51.76v1.74h-1.74C86.83,53.5,87.61,52.72,87.61,51.76"/>
	<path class="st0" d="M71.09,79.28l-1.29,1.03l-1.03-1.29C69.34,79.73,70.37,79.85,71.09,79.28"/>
	<path class="st0" d="M63.83,73.75l-1.17-1.22l1.23-1.17C63.21,72.01,63.19,73.07,63.83,73.75"/>
	<path class="st0" d="M62.75,69.67l-1.42,1.54l-1.36-1.6C60.72,70.39,61.97,70.42,62.75,69.67"/>
	<path class="st0" d="M62.68,75.45l-1.33-1.63l-1.45,1.52C60.7,74.6,61.95,74.65,62.68,75.45"/>
	<path class="st0" d="M58.76,73.66l1.21-1.15l-1.16-1.21C59.45,71.97,59.43,73.03,58.76,73.66"/>
	<path class="st0" d="M2.44,50.14l-0.98-3.08l3.1,0.62C3.27,47.68,2.19,48.73,2.44,50.14"/>
	<path class="st0" d="M30.01,51.14v2.35h2.35C31.06,53.5,30.01,52.44,30.01,51.14"/>
	<path class="st0" d="M30.01,50.03l-0.7-3.19l3.05,0.84C31.06,47.68,30.01,48.73,30.01,50.03"/>
	<path class="st0" d="M43.59,85.48l0.19,2.95l-2.55-0.6C42.54,87.83,43.59,86.78,43.59,85.48"/>
	<path class="st0" d="M30.01,57.85V55.5h2.35C31.06,55.5,30.01,56.55,30.01,57.85"/>
	<path class="st0" d="M30.01,65.8v-2.35h2.35C31.06,63.45,30.01,64.5,30.01,65.8"/>
	<path class="st0" d="M30.01,38.55l-0.35-3.08l2.7,0.73C31.06,36.2,30.01,37.25,30.01,38.55"/>
	<path class="st0" d="M45.59,65.8v-2.35h2.35C46.65,63.45,45.59,64.5,45.59,65.8"/>
	<path class="st0" d="M43.59,65.8v-2.35h-2.35C42.54,63.45,43.59,64.5,43.59,65.8"/>
	<path class="st0" d="M30.3,43.02l-0.22,0.08l-0.08-0.22C30.05,43,30.18,43.06,30.3,43.02"/>
	<path class="st0" d="M30.01,27.07l-0.51-3.5l2.86,1.15C31.06,24.72,30.01,25.77,30.01,27.07"/>
	<path class="st0" d="M29.66,3.85l0.35,3.11c0-1.41,0.94-2.6,2.22-2.98V3.85H29.66z"/>
	<path class="st0" d="M30.01,59.09v2.35h2.35C31.06,61.44,30.01,60.39,30.01,59.09"/>
	<path class="st0" d="M29.86,42.67c0,0,0.11,0.3,0.27,0.34c0.15,0.04,0.32,0,0.52-0.13l-1.15,1.41l0.34-1.62"/>
	<path class="st0" d="M30.85,45.26l-0.07,0.12c0,0-0.06,0.09,0,0.18c0.06,0.1,0.12,0.12,0.22,0.12c0.11,0-0.04,0.15-0.04,0.15
		l-0.5,0.27l-0.63-0.69L30.85,45.26z"/>
	<path class="st0" d="M25.41,45.26l0.03,0.08c0,0,0.11,0.12,0.05,0.24c-0.05,0.1-0.13,0.1-0.24,0.1c-0.11,0,0.05,0.15,0.05,0.15
		l0.5,0.27l0.63-0.69L25.41,45.26z"/>
	<path class="st0" d="M25.28,48.1l0.03-0.08c0,0,0.12-0.12,0.05-0.24c-0.05-0.1-0.13-0.1-0.24-0.1c-0.11,0,0.04-0.15,0.04-0.15
		l0.5-0.27l0.62,0.69L25.28,48.1z"/>
	<path class="st0" d="M45.9,45.26l-0.04,0.1c0,0-0.07,0.09-0.02,0.2c0.05,0.11,0.12,0.12,0.22,0.12c0.1,0-0.04,0.15-0.04,0.15
		l-0.5,0.27l-0.63-0.69L45.9,45.26z"/>
	<path class="st0" d="M57.38,33.78l-0.04,0.1c0,0-0.07,0.09-0.02,0.2c0.05,0.11,0.12,0.12,0.22,0.12c0.11,0-0.04,0.15-0.04,0.15
		l-0.5,0.27l-0.63-0.69L57.38,33.78z"/>
	<path class="st0" d="M68.86,22.3l-0.05,0.1c0,0-0.07,0.09-0.02,0.2c0.05,0.11,0.12,0.12,0.22,0.12c0.1,0-0.04,0.15-0.04,0.15
		l-0.5,0.27l-0.62-0.69L68.86,22.3z"/>
	<path class="st0" d="M81.66,22.3l0.04,0.1c0,0,0.07,0.09,0.03,0.2c-0.05,0.11-0.12,0.12-0.22,0.12c-0.1,0,0.04,0.15,0.04,0.15
		l0.5,0.27l0.62-0.69L81.66,22.3z"/>
	<path class="st0" d="M86.65,33.75l0.05,0.18c0,0,0.03,0.11-0.02,0.18c-0.05,0.07-0.1,0.08-0.21,0.08c-0.11,0,0.04,0.15,0.04,0.15
		l0.5,0.27l0.63-0.68L86.65,33.75z"/>
	<path class="st0" d="M53.8,22.3l-0.04,0.1c0,0-0.07,0.09-0.02,0.2c0.05,0.11,0.12,0.12,0.22,0.12c0.11,0-0.04,0.15-0.04,0.15
		l-0.5,0.27l-0.63-0.69L53.8,22.3z"/>
	<path class="st0" d="M42.32,33.78l-0.05,0.1c0,0-0.07,0.09-0.02,0.2c0.05,0.11,0.12,0.12,0.22,0.12c0.11,0-0.04,0.15-0.04,0.15
		l-0.5,0.27l-0.62-0.69L42.32,33.78z"/>
	<path class="st0" d="M36.76,36.62l0.05-0.1c0,0,0.07-0.09,0.02-0.2c-0.05-0.11-0.12-0.12-0.22-0.12c-0.11,0,0.04-0.15,0.04-0.15
		l0.5-0.27l0.63,0.69L36.76,36.62z"/>
	<path class="st0" d="M51.82,36.62l0.04-0.1c0,0,0.06-0.09,0.02-0.2c-0.05-0.12-0.22-0.12-0.22-0.12l0.04-0.15l0.5-0.27l0.62,0.69
		L51.82,36.62z"/>
	<path class="st0" d="M84.37,48.1l0.05-0.1c0,0,0.07-0.09,0.02-0.2c-0.05-0.12-0.22-0.12-0.22-0.12l0.05-0.15l0.5-0.27l0.63,0.69
		L84.37,48.1z"/>
	<path class="st0" d="M76.56,55.92l0.05-0.1c0,0,0.06-0.09,0.02-0.2c-0.05-0.12-0.22-0.12-0.22-0.12l0.04-0.15l0.5-0.27l0.63,0.69
		L76.56,55.92z"/>
	<path class="st0" d="M68.61,63.87l0.04-0.1c0,0,0.07-0.09,0.03-0.2c-0.05-0.12-0.22-0.12-0.22-0.12l0.04-0.15l0.5-0.27l0.62,0.69
		L68.61,63.87z"/>
	<path class="st0" d="M54.56,63.87l-0.05-0.1c0,0-0.06-0.09-0.02-0.2c0.05-0.12,0.22-0.12,0.22-0.12l-0.04-0.15l-0.5-0.27
		l-0.63,0.69L54.56,63.87z"/>
	<path class="st0" d="M63.3,25.14l0.04-0.1c0,0,0.07-0.09,0.02-0.2c-0.05-0.12-0.22-0.12-0.22-0.12l0.04-0.15l0.5-0.27l0.62,0.69
		L63.3,25.14z"/>
	<path class="st0" d="M48.24,25.14l0.04-0.1c0,0,0.07-0.09,0.02-0.2c-0.05-0.12-0.22-0.12-0.22-0.12l0.04-0.15l0.5-0.27l0.63,0.69
		L48.24,25.14z"/>
	<path class="st0" d="M82.11,53.08l-0.04,0.1c0,0-0.07,0.09-0.02,0.2c0.05,0.11,0.12,0.12,0.22,0.12c0.1,0-0.04,0.15-0.04,0.15
		l-0.5,0.27l-0.62-0.69L82.11,53.08z"/>
	<path class="st0" d="M74.17,61.03l-0.04,0.1c0,0-0.07,0.09-0.02,0.2c0.05,0.11,0.12,0.12,0.22,0.12c0.1,0-0.04,0.15-0.04,0.15
		l-0.5,0.27l-0.62-0.69L74.17,61.03z"/>
	<path class="st0" d="M27.47,44.69l0.18,0.09c0,0,0.11,0.11,0.24,0.06c0.13-0.06,0.13-0.22,0.13-0.22l0.14,0.06l0.09,0.29
		l-0.12,0.34l-0.44-0.15L27.47,44.69z"/>
	<path class="st0" d="M27.22,48.79l0.26-0.12c0,0,0.17-0.16,0.34-0.09c0.19,0.08,0.19,0.32,0.19,0.32l0.21-0.08l0.12-0.42l-0.18-0.5
		l-0.64,0.22L27.22,48.79z"/>
	<path class="st0" d="M28.01,7.23c0,0,0-0.63-0.1-0.84c-0.11-0.21-0.37-0.51-0.83-0.41c-0.53,0.11-0.2-0.48-0.2-0.48l1.05-0.41h0.67
		l-0.31,2.27L28.01,7.23z"/>
	<path class="st0" d="M30.01,86.15v-3.11c0,1.41,0.94,2.6,2.22,2.98v0.13H30.01z"/>
	<path class="st0" d="M28.01,82.76c0,0,0,0.63-0.1,0.84c-0.11,0.21-0.41,0.54-0.93,0.38c-0.52-0.16-0.11,0.52-0.11,0.52l1.05,0.41
		h0.67l-0.31-2.27L28.01,82.76z"/>
	<path class="st0" d="M67.09,80.16c0,0,0.52,0.54,0.41,1.06c-0.11,0.52-0.35,0.72-0.74,0.94l0.27,0.43l1.73-1.36l-1.32-1.15
		L67.09,80.16z"/>
	<path class="st0" d="M85.2,60.63c0,0-0.13,0.38-0.46,0.6c-0.17,0.11-0.45,0.22-0.98,0.21l0.16,0.44l1.21,0.03l0.44-1.2L85.2,60.63z
		"/>
	<path class="st0" d="M77.92,53.5c0,0,0.52,0.03,0.92-0.14c0.4-0.17,0.83-0.61,0.83-0.61l0.16,0.13l-0.49,1.02L78,53.74L77.92,53.5z
		"/>
	<path class="st0" d="M69.97,61.45c0,0,0.54,0.03,0.93-0.14c0.39-0.17,0.83-0.61,0.83-0.61l0.16,0.13l-0.49,1.02l-1.34-0.17
		L69.97,61.45z"/>
	<path class="st0" d="M53.22,34.2c0,0,0.49,0.03,0.88-0.14c0.4-0.17,0.83-0.61,0.83-0.61l0.16,0.13l-0.49,1.02l-1.34-0.17
		L53.22,34.2z"/>
	<path class="st0" d="M64.69,22.73c0,0,0.49,0.03,0.88-0.14c0.4-0.17,0.83-0.61,0.83-0.61l0.16,0.13l-0.49,1.02l-1.34-0.17
		L64.69,22.73z"/>
	<path class="st0" d="M49.63,22.72c0,0,0.5,0.02,0.9-0.15c0.4-0.17,0.83-0.61,0.83-0.61l0.16,0.13l-0.49,1.02l-1.34-0.17
		L49.63,22.72z"/>
	<path class="st0" d="M38.16,34.2c0,0,0.49,0.02,0.89-0.14c0.39-0.17,0.83-0.61,0.83-0.61l0.16,0.13l-0.49,1.02l-1.34-0.17
		L38.16,34.2z"/>
	<path class="st0" d="M41.73,45.68c0,0,0.5,0.02,0.89-0.15c0.4-0.17,0.83-0.61,0.83-0.61l0.16,0.13l-0.49,1.02l-1.34-0.17
		L41.73,45.68z"/>
	<path class="st0" d="M80.7,55.5c0,0-0.52-0.03-0.92,0.14c-0.39,0.17-0.83,0.61-0.83,0.61l-0.16-0.13l0.49-1.02l1.34,0.17L80.7,55.5
		z"/>
	<path class="st0" d="M72.79,63.45c0,0-0.52-0.03-0.92,0.14c-0.4,0.17-0.83,0.61-0.83,0.61l-0.16-0.13l0.49-1.02l1.34,0.17
		L72.79,63.45z"/>
	<path class="st0" d="M56.02,36.2c0,0-0.52-0.03-0.92,0.14c-0.39,0.17-0.83,0.61-0.83,0.61l-0.16-0.13l0.49-1.02l1.34,0.17
		L56.02,36.2z"/>
	<path class="st0" d="M52.43,24.72c0,0-0.54-0.03-0.93,0.14c-0.39,0.17-0.83,0.61-0.83,0.61l-0.16-0.13l0.49-1.02l1.34,0.17
		L52.43,24.72z"/>
	<path class="st0" d="M40.96,36.2c0,0-0.53-0.03-0.93,0.14c-0.4,0.17-0.83,0.61-0.83,0.61l-0.16-0.13l0.49-1.02l1.34,0.17
		L40.96,36.2z"/>
	<path class="st0" d="M67.51,24.72c0,0-0.53-0.03-0.93,0.14c-0.39,0.17-0.83,0.61-0.83,0.61l-0.16-0.13l0.49-1.02l1.34,0.17
		L67.51,24.72z"/>
	<path class="st0" d="M87.18,48.06c0,0,0.18-0.21,0.5-0.09c0.32,0.12,0.32,0.4,0.32,0.4h0.25l0.07-0.94l-1.15-0.16
		c0,0-0.24,0.59-0.01,0.8"/>
	<path class="st0" d="M85.45,55.5c0,0,0.73-0.03,0.97,0.41c0.21,0.38,0.09,0.86,0.04,1.03c-0.05,0.17,0.56-0.09,0.56-0.09l0.67-1.95
		l-2.49-0.08L85.45,55.5z"/>
	<path class="st0" d="M83.05,63.45c0,0,0.37,0.03,0.49,0.36c0.12,0.32-0.06,0.68-0.06,0.68l0.49,0.16l0.75-1.26l-1.26-0.65
		L83.05,63.45z"/>
	<path class="st0" d="M75.21,16.01c0,0,0.3-0.28,0.8-0.31c0.5-0.03,0.84,0.28,0.93,0.38c0.09,0.1,0.15-0.19,0.15-0.19l-0.9-1.15
		h-0.75L75.21,16.01z"/>
	<path class="st0" d="M50.81,63.45c0,0,0.33,0,0.67,0.16c0.34,0.17,0.42,0.29,0.42,0.29l0.31-0.37l-0.52-0.82L50.81,63.45z"/>
	<path class="st0" d="M45.59,86.38c0,0,0,0.16,0.08,0.19c0.09,0.04,0.18-0.01,0.24-0.07l0.05,0.39l-0.29,0.23l-0.47-0.37
		L45.59,86.38z"/>
	<path class="st0" d="M47.48,87.76c0,0-0.03,0.06,0,0.12c0.03,0.06,0.13,0.05,0.13,0.05l-0.09,0.15l-0.49,0.11l0.01-0.58
		L47.48,87.76z"/>
	<path class="st0" d="M9.68,66.47c0,0-0.6,0.65-0.58,1.34c0.02,0.69,0.33,1.12,0.39,1.22c0.07,0.1-0.68,0.26-0.68,0.26l-1.63-2.17
		C7.19,67.11,9.12,66.29,9.68,66.47"/>
	<path class="st0" d="M6.97,64.8c0,0,0.23,0.33,0.58,0.37c0.34,0.04,0.77-0.16,0.94-0.33l0.11,0.91L7.72,67.1l-1.37-1.64L6.97,64.8z
		"/>
	<path class="st0" d="M6.23,26.7c0,0,0.17-0.43,0.67-0.54c0.26-0.06,0.65,0.01,0.81,0.18C7.86,26.51,8,25.32,8,25.32l-1.46-1.1
		C6.54,24.22,5.74,26.22,6.23,26.7"/>
	<path class="st0" d="M8.36,24.11c0,0-0.24-0.2-0.27-0.54c-0.02-0.34,0.18-0.69,0.18-0.69l-0.42-0.24l-0.62,0.67l0.19,0.9
		L8.36,24.11z"/>
	<path class="st0" d="M73.36,12.58c0,0,0.58,0.55,0.54,1.24c-0.05,0.78-0.66,1.32-0.66,1.32l0.8,0.06l1.45-1.84l-1.87-1.29
		L73.36,12.58z"/>
	<path class="st0" d="M66.8,9.35c0,0,0.47-0.44,1-0.47c0.72-0.04,1.23,0.38,1.23,0.38l-0.41-0.88l-1.15-0.69L66.8,9.35z"/>
	<path class="st0" d="M65.11,6.92c0,0,0.29,0.14,0.32,0.6c0.03,0.46-0.47,0.85-0.47,0.85l1.21-0.33l0.35-1.23L65.11,6.92z"/>
</g>
</svg>
