<?xml version="1.0" encoding="utf-8"?>
<!-- Generator: Adobe Illustrator 27.0.0, SVG Export Plug-In . SVG Version: 6.00 Build 0)  -->
<svg version="1.1" id="圖層_1" xmlns="http://www.w3.org/2000/svg" xmlns:xlink="http://www.w3.org/1999/xlink" x="0px" y="0px"
	 viewBox="0 0 60 60" style="enable-background:new 0 0 60 60;" xml:space="preserve">
<style type="text/css">
	.st0{fill:#FFFFFF;}
</style>
<g>
	<path class="st0" d="M28.39,28.16c-0.07,0.12-0.17,0.19-0.43,0.19h-3.27c0.85,1.37,2.42,2.58,3.83,3.12l-0.03,0.09
		c-0.24,0.03-0.47,0.21-0.56,0.49c-1.34-0.72-2.62-2-3.39-3.57v4.14c0,0.03-0.07,0.23-0.59,0.23v-4.06
		c-0.89,1.36-2.26,2.53-3.87,3.33l-0.1-0.14c1.46-0.91,2.76-2.28,3.51-3.63h-3.26l-0.05-0.21h3.78v-3.58l0.97,0.09
		c-0.02,0.13-0.1,0.2-0.38,0.22v3.27h2.56l0.45-0.56L28.39,28.16z M20.99,25.25c1.28,0.67,1.68,1.42,1.68,1.88
		c0,0.26-0.13,0.42-0.3,0.42c-0.07,0-0.16-0.04-0.24-0.11c-0.11-0.69-0.72-1.6-1.24-2.12L20.99,25.25z M25.4,27.69
		c0.46-0.59,1.07-1.59,1.54-2.52l0.88,0.45c-0.04,0.07-0.09,0.12-0.21,0.12c-0.04,0-0.08-0.01-0.13-0.02
		c-0.59,0.78-1.32,1.57-1.95,2.08L25.4,27.69z"/>
	<path class="st0" d="M30.64,26.87c0.98,0.11,1.3,0.52,1.3,0.82c0,0.2-0.13,0.35-0.3,0.35c-0.08,0-0.16-0.04-0.24-0.1
		c-0.11-0.35-0.46-0.77-0.8-0.98L30.64,26.87z M31.04,30.31c0.1,0,0.13,0,0.21-0.19c0.04-0.06,0.14-0.3,1.53-3.82l0.17,0.04
		c-0.34,1.09-0.98,3.13-1.1,3.55c-0.06,0.26-0.12,0.51-0.12,0.72v0.05c0,0.37,0.22,0.78,0.22,1.44c0,0.15,0,0.72-0.47,0.72
		c-0.16,0-0.25-0.16-0.27-0.46c0.04-0.33,0.06-0.64,0.06-0.89c0-0.86-0.17-0.94-0.62-0.98v-0.2C30.94,30.31,31.04,30.3,31.04,30.31
		L31.04,30.31z M30.93,24.64c1.07,0.16,1.41,0.61,1.41,0.92c0,0.2-0.13,0.34-0.3,0.34c-0.07,0-0.15-0.03-0.23-0.09
		c-0.15-0.38-0.56-0.83-0.93-1.08L30.93,24.64z M36.17,30.28c0.2,0.37,0.46,0.7,0.77,0.98c0.3-0.21,0.67-0.55,0.98-0.85l0.58,0.62
		c-0.04,0.04-0.08,0.05-0.13,0.05c-0.05,0-0.12-0.02-0.2-0.05c-0.34,0.16-0.72,0.3-1.05,0.39c0.51,0.4,1.15,0.69,1.84,0.83v0.1
		c-0.23,0.05-0.4,0.21-0.46,0.47c-0.64-0.22-1.18-0.55-1.61-0.99c-0.69,0.21-1.61,0.46-2.82,0.75c-0.04,0.11-0.12,0.18-0.21,0.21
		l-0.35-0.76c0.24-0.02,0.59-0.05,1.02-0.1v-1.65h-0.85c-0.1,0.88-0.43,1.86-1.47,2.59l-0.12-0.12c0.95-0.98,1.07-2.18,1.07-3.27
		v-1.37l0.65,0.29h3.84l0.39-0.47l0.77,0.5c-0.07,0.13-0.18,0.18-0.43,0.18h-4.67v0.86c0,0.19-0.01,0.38-0.02,0.59h4l0.38-0.45
		l0.75,0.48c-0.07,0.13-0.18,0.18-0.43,0.18H36.17z M34,27.72v0.21c0,0.01-0.07,0.19-0.55,0.19v-2.89l0.59,0.27h0.8v-0.95l0.91,0.08
		c-0.01,0.14-0.11,0.2-0.39,0.23v0.64h0.84v-0.95l0.92,0.08c-0.01,0.14-0.11,0.2-0.4,0.23v0.64h0.8l0.26-0.34l0.76,0.54
		c-0.06,0.07-0.21,0.14-0.39,0.18v1.92c0,0.02-0.16,0.18-0.54,0.18v-0.25H34z M33.96,29.23h3.01l0.38-0.45l0.74,0.48
		c-0.07,0.13-0.17,0.18-0.42,0.18h-3.66L33.96,29.23z M34.84,25.71H34v0.79h0.84V25.71z M34.84,26.71H34v0.8h0.84V26.71z
		 M35.07,30.28v1.58c0.51-0.05,1.08-0.13,1.67-0.21c-0.33-0.38-0.59-0.84-0.78-1.38H35.07z M36.2,25.71h-0.84v0.79h0.84V25.71z
		 M35.36,27.5h0.84v-0.8h-0.84V27.5z M37.62,25.71h-0.89v0.79h0.89V25.71z M36.72,27.5h0.89v-0.8h-0.89V27.5z"/>
	<path class="st0" d="M41.96,25.32h-0.77l-0.06-0.21h3.72l0.39-0.49l0.76,0.52c-0.08,0.13-0.18,0.19-0.42,0.19h-0.66v3.35
		c0,0.04-0.19,0.17-0.47,0.17h-0.09v-0.66c-0.65,0.12-1.51,0.29-2.64,0.48c-0.04,0.12-0.13,0.17-0.21,0.19l-0.32-0.7
		c0.2,0,0.46-0.01,0.78-0.03V25.32z M44.49,30.8c-0.04,0.06-0.09,0.1-0.18,0.1c-0.04,0-0.1-0.01-0.16-0.03
		c-0.6,0.66-1.74,1.4-2.92,1.79l-0.08-0.14c1.04-0.51,2.08-1.39,2.59-2.13L44.49,30.8z M43.91,29.2c-0.04,0.06-0.09,0.1-0.17,0.1
		c-0.04,0-0.09-0.02-0.16-0.04c-0.48,0.4-1.36,0.89-2.19,1.17l-0.09-0.14c0.71-0.39,1.51-1.03,1.9-1.52L43.91,29.2z M44.36,25.32
		h-1.84v0.78h1.84V25.32z M44.36,26.31h-1.84v0.77h1.84V26.31z M42.52,27.29v0.79c0.55-0.03,1.18-0.07,1.84-0.12v-0.67H42.52z
		 M47.35,28.88c-0.04,0.05-0.11,0.07-0.19,0.07c-0.06,0-0.14-0.02-0.23-0.04c-0.23,0.12-0.51,0.23-0.83,0.35
		c0.2,0.47,0.46,0.9,0.8,1.28c0.58-0.43,1.26-1.04,1.62-1.46l0.74,0.49c-0.04,0.05-0.1,0.09-0.18,0.09c-0.04,0-0.1-0.02-0.16-0.04
		c-0.45,0.32-1.19,0.75-1.89,1.06c0.64,0.66,1.49,1.15,2.44,1.45l-0.02,0.1c-0.25,0.03-0.44,0.21-0.53,0.47
		c-1.46-0.64-2.5-1.75-3-3.39c-0.15,0.05-0.3,0.11-0.47,0.15l0.27,0.03c-0.01,0.06-0.04,0.11-0.18,0.13v2.97
		c0,0.02-0.11,0.2-0.58,0.2v-3.18c-0.38,0.1-0.79,0.19-1.17,0.24l-0.05-0.15c1.08-0.29,2.33-0.86,2.93-1.31L47.35,28.88z
		 M45.46,25.8l-0.06-0.21h2.73l0.38-0.36l0.64,0.56c-0.07,0.08-0.17,0.11-0.37,0.12c-0.22,0.47-0.52,0.88-0.89,1.23
		c0.9,0.49,1.21,0.97,1.21,1.24c0,0.15-0.1,0.24-0.23,0.24c-0.06,0-0.13-0.02-0.2-0.05c-0.21-0.3-0.64-0.7-1.19-1.1
		c-0.57,0.42-1.29,0.75-2.16,0.98l-0.05-0.15c0.74-0.27,1.36-0.63,1.85-1.07c-0.38-0.26-0.83-0.51-1.32-0.73l0.06-0.14
		c0.63,0.18,1.14,0.37,1.57,0.56c0.29-0.34,0.54-0.71,0.71-1.12H45.46z"/>
	<path class="st0" d="M51.7,28.02c1.01,0.1,1.34,0.53,1.34,0.83c0,0.19-0.13,0.33-0.29,0.33c-0.06,0-0.14-0.03-0.22-0.08
		c-0.11-0.38-0.51-0.79-0.89-0.98L51.7,28.02z M54.07,25.77h-2.31l-0.05-0.21h2.36v-1.01L55,24.61c-0.02,0.13-0.08,0.19-0.36,0.22
		v0.72h2.34v-1.01l0.93,0.06c-0.01,0.13-0.08,0.18-0.36,0.21v0.73h1.22l0.4-0.55l0.8,0.58c-0.07,0.13-0.17,0.18-0.42,0.18h-2v0.71
		c0,0.02-0.08,0.2-0.57,0.2v-0.9h-2.34v0.75c0,0.03-0.07,0.18-0.57,0.18V25.77z M52.33,30.68c0.1,0,0.13,0,0.23-0.16
		c0.18-0.28,0.18-0.28,1.95-3.33l0.16,0.05c-0.41,0.9-1.34,2.74-1.49,3.09c-0.1,0.24-0.17,0.5-0.17,0.7c0,0.31,0.21,0.64,0.21,1.18
		c0,0.13,0,0.64-0.47,0.64c-0.14,0-0.25-0.14-0.27-0.39c0.04-0.28,0.05-0.52,0.05-0.72c0-0.64-0.12-0.82-0.63-0.85v-0.21
		C52.23,30.68,52.33,30.68,52.33,30.68L52.33,30.68z M52.31,26.48c0.99,0.13,1.32,0.55,1.32,0.85c0,0.19-0.13,0.33-0.29,0.33
		c-0.06,0-0.14-0.03-0.22-0.08c-0.12-0.35-0.52-0.79-0.87-1.01L52.31,26.48z M58.51,26.79l0.63,0.59c-0.06,0.07-0.16,0.11-0.38,0.11
		c-0.36,0.59-0.83,1.14-1.4,1.62c0.76,0.47,1.67,0.81,2.64,1.01l-0.01,0.09c-0.24,0.04-0.42,0.21-0.49,0.47
		c-0.13-0.04-0.24-0.07-0.36-0.12c-0.06,0.03-0.13,0.05-0.21,0.07v1.97c0,0.03-0.17,0.2-0.57,0.2V32.3h-2.71v0.36
		c0,0.04-0.19,0.19-0.46,0.19h-0.09v-2.38c-0.4,0.17-0.83,0.32-1.28,0.46l-0.05-0.16c1.11-0.4,2.09-0.97,2.89-1.66
		c-0.39-0.39-0.72-0.84-0.97-1.35c-0.38,0.42-0.83,0.8-1.31,1.07l-0.11-0.11c0.74-0.59,1.44-1.64,1.78-2.55l0.87,0.21
		c-0.04,0.1-0.1,0.13-0.33,0.12c-0.12,0.21-0.25,0.43-0.41,0.64h1.94L58.51,26.79z M58.29,30.31l0.05-0.07
		c-0.49-0.23-0.95-0.51-1.35-0.84c-0.41,0.31-0.88,0.59-1.39,0.84l0.16,0.07H58.29z M55.65,32.09h2.71v-1.57h-2.71V32.09z
		 M55.83,27.59c0.28,0.47,0.66,0.89,1.13,1.24c0.47-0.45,0.85-0.94,1.14-1.47h-2.08L55.83,27.59z"/>
	<path class="st0" d="M23.32,37.55c0.01,0.13,0.04,0.34,0.2,0.39c0.11,0.03,0.2,0.03,0.24,0.03c0.02,0,0.03,0,0.03,0.02
		c0,0.02-0.03,0.03-0.08,0.03c-0.08,0-0.48,0-0.62-0.02c-0.09-0.01-0.1-0.02-0.1-0.04c0-0.02,0.01-0.02,0.03-0.03
		c0.02,0,0.02-0.07,0.01-0.13l-0.18-1.92h-0.01l-0.91,1.92c-0.08,0.16-0.09,0.2-0.12,0.2c-0.03,0-0.04-0.04-0.11-0.17
		c-0.1-0.18-0.41-0.82-0.43-0.86c-0.03-0.07-0.45-0.95-0.49-1.05h-0.01l-0.15,1.72c0,0.06,0,0.13,0,0.19c0,0.06,0.04,0.1,0.1,0.11
		c0.06,0.02,0.12,0.02,0.14,0.02c0.01,0,0.03,0.01,0.03,0.02c0,0.03-0.02,0.03-0.07,0.03c-0.14,0-0.31-0.01-0.34-0.01
		c-0.03,0-0.21,0.01-0.31,0.01c-0.04,0-0.06-0.01-0.06-0.03c0-0.01,0.02-0.02,0.04-0.02c0.03,0,0.06,0,0.11-0.01
		c0.12-0.02,0.13-0.17,0.15-0.31l0.27-2.41c0-0.04,0.02-0.07,0.04-0.07c0.02,0,0.04,0.02,0.06,0.06l1.13,2.33l1.09-2.32
		c0.01-0.03,0.03-0.06,0.06-0.06s0.04,0.03,0.04,0.1L23.32,37.55z"/>
	<path class="st0" d="M24.85,37.11c0,0.3,0,0.55,0.01,0.68c0.01,0.09,0.02,0.15,0.12,0.17c0.05,0.01,0.12,0.02,0.15,0.02
		c0.02,0,0.03,0.02,0.03,0.03c0,0.02-0.02,0.03-0.05,0.03c-0.18,0-0.39-0.01-0.41-0.01c-0.02,0-0.22,0.01-0.32,0.01
		c-0.03,0-0.05-0.01-0.05-0.03c0-0.01,0.01-0.03,0.03-0.03c0.03,0,0.07-0.01,0.1-0.02c0.06-0.01,0.07-0.07,0.09-0.17
		c0.01-0.13,0.02-0.38,0.02-0.68v-0.55c0-0.49,0-0.58-0.01-0.68c-0.01-0.11-0.03-0.16-0.1-0.17c-0.04-0.01-0.08-0.01-0.1-0.01
		c-0.01,0-0.03-0.02-0.03-0.03c0-0.02,0.01-0.03,0.05-0.03c0.11,0,0.31,0.01,0.33,0.01c0.01,0,0.23-0.01,0.33-0.01
		c0.04,0,0.05,0.01,0.05,0.03c0,0.01-0.01,0.03-0.03,0.03c-0.02,0-0.04,0-0.08,0.01c-0.09,0.02-0.11,0.06-0.11,0.17
		c0,0.1,0,0.19,0,0.68V37.11z"/>
	<path class="st0" d="M27.75,37.52c0.01,0.3,0.04,0.4,0.14,0.43c0.07,0.02,0.15,0.02,0.18,0.02c0.02,0,0.03,0.01,0.03,0.02
		c0,0.02-0.02,0.03-0.07,0.03c-0.21,0-0.36-0.01-0.39-0.01c-0.03,0-0.19,0.01-0.36,0.01c-0.04,0-0.06,0-0.06-0.03
		c0-0.02,0.01-0.02,0.03-0.02c0.03,0,0.1,0,0.15-0.02c0.09-0.03,0.11-0.13,0.11-0.47l0-2.12c0-0.14,0.01-0.18,0.04-0.18
		c0.03,0,0.09,0.08,0.13,0.12c0.06,0.06,0.61,0.66,1.18,1.27c0.37,0.39,0.77,0.84,0.89,0.97l-0.04-1.88c0-0.24-0.03-0.32-0.14-0.35
		c-0.07-0.01-0.15-0.02-0.18-0.02c-0.03,0-0.03-0.01-0.03-0.03c0-0.02,0.03-0.03,0.07-0.03c0.17,0,0.34,0.01,0.38,0.01
		c0.04,0,0.16-0.01,0.31-0.01c0.04,0,0.07,0,0.07,0.03c0,0.01-0.01,0.03-0.04,0.03c-0.02,0-0.04,0-0.09,0.01
		c-0.12,0.03-0.14,0.11-0.14,0.33l-0.01,2.17c0,0.24-0.01,0.26-0.03,0.26c-0.03,0-0.07-0.04-0.27-0.24c-0.04-0.04-0.57-0.58-0.96-1
		c-0.43-0.46-0.85-0.93-0.96-1.06L27.75,37.52z"/>
	<path class="st0" d="M31.08,36.55c0-0.49,0-0.58-0.01-0.68c-0.01-0.1-0.03-0.16-0.13-0.17c-0.03,0-0.08-0.01-0.11-0.01
		c-0.01,0-0.03-0.02-0.03-0.03c0-0.02,0.02-0.03,0.05-0.03c0.15,0,0.34,0.01,0.37,0.01c0.03,0,0.23-0.01,0.33-0.01
		c0.04,0,0.06,0.01,0.06,0.03c0,0.01-0.02,0.03-0.03,0.03c-0.02,0-0.04,0-0.08,0.01c-0.08,0.01-0.1,0.07-0.11,0.17
		c-0.01,0.1-0.01,0.19-0.01,0.68v0.44c0,0.46,0.1,0.64,0.24,0.77c0.16,0.14,0.3,0.17,0.48,0.17c0.2,0,0.39-0.09,0.5-0.22
		c0.15-0.18,0.18-0.44,0.18-0.76v-0.4c0-0.49,0-0.58-0.01-0.68c0-0.1-0.02-0.16-0.13-0.17c-0.03,0-0.08-0.01-0.11-0.01
		c-0.01,0-0.03-0.02-0.03-0.03c0-0.02,0.01-0.03,0.05-0.03c0.14,0,0.33,0.01,0.35,0.01c0.02,0,0.18-0.01,0.27-0.01
		c0.04,0,0.05,0.01,0.05,0.03c0,0.01-0.01,0.03-0.03,0.03c-0.02,0-0.04,0-0.08,0.01c-0.09,0.02-0.11,0.07-0.12,0.17
		c-0.01,0.1,0,0.19,0,0.68v0.34c0,0.34-0.04,0.72-0.3,0.94c-0.24,0.2-0.49,0.23-0.68,0.23c-0.11,0-0.45-0.01-0.68-0.22
		c-0.16-0.15-0.28-0.37-0.28-0.82V36.55z"/>
	<path class="st0" d="M34.28,37.59c0.01,0.26,0.04,0.34,0.13,0.36c0.06,0.02,0.13,0.02,0.16,0.02c0.02,0,0.03,0.01,0.03,0.03
		c0,0.02-0.02,0.03-0.06,0.03c-0.19,0-0.31-0.01-0.34-0.01c-0.03,0-0.17,0.01-0.31,0.01c-0.03,0-0.05,0-0.05-0.03
		c0-0.01,0.01-0.03,0.03-0.03c0.03,0,0.08,0,0.13-0.02c0.08-0.02,0.09-0.11,0.09-0.39v-1.8c0-0.13,0.02-0.16,0.04-0.16
		c0.04,0,0.09,0.06,0.13,0.1c0.05,0.05,0.52,0.55,1.03,1.07c0.32,0.33,0.67,0.71,0.77,0.81L36.01,36c0-0.2-0.02-0.27-0.12-0.29
		c-0.06-0.01-0.13-0.01-0.16-0.01c-0.02,0-0.03-0.02-0.03-0.03c0-0.02,0.03-0.02,0.06-0.02c0.15,0,0.3,0.01,0.34,0.01
		s0.14-0.01,0.28-0.01c0.03,0,0.06,0,0.06,0.02c0,0.01-0.02,0.03-0.04,0.03c-0.02,0-0.04,0-0.08,0.01
		c-0.11,0.02-0.11,0.08-0.11,0.27l-0.01,1.84c0,0.21,0,0.23-0.03,0.23c-0.03,0-0.07-0.03-0.25-0.19c-0.03-0.03-0.5-0.49-0.85-0.85
		c-0.38-0.4-0.74-0.78-0.84-0.89L34.28,37.59z"/>
	<path class="st0" d="M38.88,37.22c0-0.25-0.01-0.29-0.14-0.32c-0.03,0-0.08-0.01-0.11-0.01c-0.01,0-0.03-0.02-0.03-0.03
		c0-0.02,0.01-0.03,0.05-0.03c0.15,0,0.37,0.01,0.38,0.01c0.01,0,0.22-0.01,0.32-0.01c0.04,0,0.05,0,0.05,0.03
		c0,0.01-0.01,0.03-0.03,0.03c-0.02,0-0.04,0-0.08,0.01c-0.09,0.01-0.12,0.06-0.12,0.17c0,0.1,0,0.19,0,0.33v0.35
		c0,0.14,0,0.15-0.04,0.17c-0.21,0.11-0.5,0.14-0.69,0.14c-0.25,0-0.71-0.03-1.07-0.34c-0.2-0.17-0.39-0.5-0.39-0.9
		c0-0.5,0.25-0.86,0.54-1.03c0.29-0.18,0.62-0.2,0.87-0.2c0.21,0,0.44,0.04,0.5,0.05c0.07,0.02,0.18,0.03,0.26,0.03
		c0.03,0,0.04,0.01,0.04,0.03c0,0.04-0.02,0.13-0.02,0.44c0,0.05-0.01,0.07-0.04,0.07c-0.02,0-0.02-0.02-0.02-0.05
		c0-0.04-0.02-0.13-0.07-0.21c-0.08-0.12-0.33-0.24-0.75-0.24c-0.2,0-0.43,0.01-0.68,0.2c-0.19,0.14-0.32,0.43-0.32,0.79
		c0,0.44,0.23,0.76,0.34,0.87c0.26,0.24,0.53,0.33,0.83,0.33c0.11,0,0.27-0.01,0.35-0.06c0.04-0.02,0.07-0.04,0.07-0.1V37.22z"/>
	<path class="st0" d="M44.37,37.61c0.21-0.49,0.71-1.79,0.79-2.05c0.02-0.06,0.03-0.11,0.03-0.14c0-0.03-0.01-0.07-0.05-0.09
		c-0.04-0.01-0.1-0.01-0.14-0.01c-0.02,0-0.04,0-0.04-0.02c0-0.02,0.02-0.03,0.08-0.03c0.15,0,0.32,0.01,0.36,0.01
		c0.02,0,0.18-0.01,0.29-0.01c0.04,0,0.06,0.01,0.06,0.03c0,0.02-0.01,0.03-0.04,0.03c-0.03,0-0.11,0-0.18,0.04
		c-0.05,0.03-0.1,0.1-0.2,0.35c-0.04,0.1-0.23,0.55-0.41,1c-0.23,0.54-0.39,0.94-0.48,1.12c-0.1,0.22-0.12,0.28-0.16,0.28
		c-0.04,0-0.06-0.05-0.13-0.23l-0.91-2.27c-0.08-0.21-0.14-0.25-0.27-0.29c-0.06-0.01-0.12-0.01-0.14-0.01
		c-0.02,0-0.03-0.01-0.03-0.03c0-0.02,0.04-0.03,0.1-0.03c0.18,0,0.39,0.01,0.43,0.01c0.04,0,0.2-0.01,0.34-0.01
		c0.07,0,0.1,0.01,0.1,0.03c0,0.02-0.01,0.03-0.04,0.03c-0.04,0-0.11,0-0.14,0.02c-0.04,0.02-0.05,0.05-0.05,0.07
		c0,0.05,0.04,0.16,0.1,0.31L44.37,37.61z"/>
	<path class="st0" d="M46.71,37.15c0,0.3,0,0.55,0.01,0.68c0.01,0.09,0.02,0.15,0.12,0.17c0.05,0.01,0.12,0.01,0.15,0.01
		c0.02,0,0.03,0.02,0.03,0.03c0,0.01-0.01,0.03-0.05,0.03c-0.18,0-0.39-0.01-0.41-0.01c-0.02,0-0.22,0.01-0.32,0.01
		c-0.03,0-0.05-0.01-0.05-0.03c0-0.01,0.01-0.03,0.03-0.03c0.03,0,0.07-0.01,0.1-0.01c0.06-0.02,0.07-0.07,0.08-0.17
		c0.01-0.13,0.02-0.38,0.02-0.68V36.6c0-0.49,0-0.58-0.01-0.68c-0.01-0.11-0.03-0.15-0.1-0.17c-0.04-0.01-0.08-0.01-0.1-0.01
		c-0.01,0-0.03-0.02-0.03-0.03c0-0.02,0.01-0.03,0.05-0.03c0.11,0,0.31,0.01,0.33,0.01c0.01,0,0.23-0.01,0.33-0.01
		c0.04,0,0.05,0.01,0.05,0.03c0,0.01-0.01,0.03-0.03,0.03c-0.02,0-0.04,0-0.08,0.01c-0.09,0.02-0.11,0.06-0.11,0.17
		c0,0.1,0,0.19,0,0.68V37.15z"/>
	<path class="st0" d="M48.26,37.16c0,0.46,0.01,0.65,0.07,0.71c0.05,0.05,0.18,0.07,0.43,0.07c0.17,0,0.31,0,0.39-0.1
		c0.04-0.05,0.07-0.12,0.08-0.18c0-0.02,0.01-0.04,0.03-0.04c0.01,0,0.02,0.02,0.02,0.05c0,0.03-0.02,0.22-0.05,0.31
		c-0.02,0.07-0.03,0.09-0.21,0.09c-0.23,0-0.41,0-0.57-0.01c-0.15,0-0.26-0.01-0.35-0.01c-0.01,0-0.07,0-0.13,0
		c-0.07,0-0.14,0.01-0.19,0.01c-0.03,0-0.05-0.01-0.05-0.03c0-0.01,0.01-0.03,0.03-0.03c0.03,0,0.07-0.01,0.1-0.01
		c0.06-0.02,0.07-0.07,0.08-0.17c0.02-0.13,0.02-0.38,0.02-0.68V36.6c0-0.49,0-0.58-0.01-0.68c-0.01-0.11-0.03-0.16-0.13-0.17
		c-0.03,0-0.08-0.01-0.11-0.01c-0.01,0-0.03-0.02-0.03-0.03c0-0.02,0.01-0.03,0.05-0.03c0.15,0,0.35,0.01,0.37,0.01
		c0.01,0,0.26-0.01,0.36-0.01c0.03,0,0.05,0.01,0.05,0.03c0,0.01-0.02,0.02-0.03,0.02c-0.02,0-0.07,0-0.11,0.01
		c-0.1,0.02-0.12,0.07-0.12,0.18c0,0.1,0,0.19,0,0.68V37.16z"/>
	<path class="st0" d="M50.42,37.16c0,0.46,0.01,0.65,0.07,0.71c0.05,0.05,0.18,0.07,0.43,0.07c0.17,0,0.31,0,0.39-0.1
		c0.04-0.05,0.07-0.12,0.08-0.18c0-0.02,0.02-0.04,0.03-0.04c0.01,0,0.02,0.02,0.02,0.05c0,0.03-0.02,0.22-0.05,0.31
		c-0.02,0.07-0.03,0.09-0.21,0.09c-0.23,0-0.41,0-0.57-0.01c-0.15,0-0.26-0.01-0.35-0.01c-0.01,0-0.07,0-0.13,0
		c-0.07,0-0.14,0.01-0.19,0.01c-0.03,0-0.05-0.01-0.05-0.03c0-0.01,0.01-0.03,0.03-0.03c0.03,0,0.07-0.01,0.1-0.01
		c0.06-0.02,0.07-0.07,0.08-0.17c0.02-0.13,0.02-0.38,0.02-0.68V36.6c0-0.49,0-0.58-0.01-0.68c-0.01-0.11-0.03-0.16-0.13-0.17
		c-0.03,0-0.08-0.01-0.11-0.01c-0.01,0-0.03-0.02-0.03-0.03c0-0.02,0.01-0.03,0.05-0.03c0.15,0,0.35,0.01,0.37,0.01
		c0.01,0,0.26-0.01,0.36-0.01c0.03,0,0.05,0.01,0.05,0.03c0,0.01-0.01,0.02-0.03,0.02c-0.02,0-0.07,0-0.11,0.01
		c-0.1,0.02-0.11,0.07-0.12,0.18c0,0.1,0,0.19,0,0.68V37.16z"/>
	<path class="st0" d="M52.82,35.75c0.04-0.1,0.06-0.12,0.08-0.12c0.03,0,0.04,0.04,0.08,0.11c0.06,0.13,0.58,1.43,0.78,1.91
		c0.12,0.28,0.21,0.32,0.28,0.34c0.05,0.01,0.1,0.02,0.13,0.02c0.02,0,0.04,0.01,0.04,0.03c0,0.02-0.04,0.03-0.07,0.03
		c-0.05,0-0.29,0-0.51-0.01c-0.06,0-0.11,0-0.11-0.02c0-0.02,0.01-0.02,0.02-0.02c0.02-0.01,0.05-0.03,0.03-0.09l-0.29-0.72
		c-0.01-0.02-0.01-0.02-0.03-0.02h-0.75c-0.01,0-0.03,0.01-0.03,0.03l-0.18,0.5c-0.03,0.08-0.05,0.15-0.05,0.21
		c0,0.06,0.06,0.09,0.11,0.09h0.03c0.03,0,0.03,0.01,0.03,0.03c0,0.02-0.02,0.03-0.05,0.03c-0.08,0-0.26-0.01-0.29-0.01
		c-0.03,0-0.2,0.01-0.33,0.01c-0.04,0-0.06-0.01-0.06-0.03c0-0.02,0.01-0.03,0.03-0.03c0.02,0,0.07,0,0.1-0.01
		c0.15-0.02,0.21-0.13,0.27-0.29L52.82,35.75z M53.18,37.06c0.01,0,0.01-0.01,0.01-0.02l-0.32-0.86c-0.02-0.05-0.04-0.05-0.06,0
		l-0.3,0.86c0,0.02,0,0.02,0.01,0.02H53.18z"/>
	<path class="st0" d="M56.34,37.26c0-0.25-0.01-0.29-0.14-0.32c-0.03,0-0.08-0.01-0.11-0.01c-0.01,0-0.03-0.01-0.03-0.03
		c0-0.02,0.02-0.02,0.05-0.02c0.15,0,0.37,0.01,0.38,0.01c0.01,0,0.22-0.01,0.32-0.01c0.04,0,0.05,0,0.05,0.02
		c0,0.01-0.02,0.03-0.03,0.03c-0.02,0-0.04,0-0.08,0.01c-0.09,0.02-0.11,0.06-0.12,0.17c0,0.1,0,0.19,0,0.33v0.35
		c0,0.14,0,0.15-0.04,0.17c-0.21,0.11-0.5,0.14-0.69,0.14c-0.25,0-0.71-0.03-1.07-0.34c-0.2-0.17-0.39-0.5-0.39-0.9
		c0-0.5,0.26-0.86,0.54-1.03c0.29-0.18,0.62-0.2,0.87-0.2c0.21,0,0.44,0.04,0.5,0.05c0.07,0.02,0.18,0.03,0.26,0.03
		c0.03,0,0.04,0.01,0.04,0.03c0,0.04-0.02,0.13-0.02,0.44c0,0.05-0.01,0.07-0.04,0.07c-0.02,0-0.02-0.02-0.02-0.05
		c0-0.04-0.02-0.13-0.07-0.21c-0.08-0.12-0.33-0.24-0.75-0.24c-0.2,0-0.43,0.02-0.68,0.2c-0.19,0.14-0.32,0.42-0.32,0.79
		c0,0.44,0.23,0.76,0.34,0.87c0.26,0.24,0.53,0.33,0.83,0.33c0.11,0,0.27-0.01,0.35-0.06c0.04-0.02,0.07-0.04,0.07-0.1V37.26z"/>
	<path class="st0" d="M57.81,36.6c0-0.49,0-0.58-0.01-0.68c-0.01-0.11-0.02-0.16-0.13-0.17c-0.03,0-0.08-0.01-0.11-0.01
		c-0.01,0-0.03-0.02-0.03-0.03c0-0.02,0.02-0.03,0.05-0.03c0.15,0,0.36,0.01,0.38,0.01c0.02,0,0.7,0,0.78,0
		c0.06,0,0.12-0.01,0.15-0.02c0.02,0,0.03-0.01,0.05-0.01c0.01,0,0.01,0.01,0.01,0.03c0,0.02-0.02,0.06-0.03,0.15
		c0,0.03-0.01,0.17-0.02,0.21c0,0.02-0.02,0.03-0.03,0.03c-0.02,0-0.03-0.01-0.03-0.04c0-0.02,0-0.07-0.02-0.11
		c-0.02-0.05-0.06-0.07-0.23-0.1c-0.06-0.01-0.43-0.01-0.47-0.01c-0.01,0-0.02,0.01-0.02,0.03v0.85c0,0.02,0,0.03,0.02,0.03
		c0.04,0,0.47,0,0.54-0.01c0.08-0.01,0.13-0.01,0.16-0.04c0.02-0.02,0.04-0.04,0.05-0.04c0.01,0,0.02,0.01,0.02,0.03
		c0,0.02-0.02,0.07-0.03,0.17c-0.01,0.06-0.01,0.18-0.01,0.2c0,0.03-0.01,0.06-0.03,0.06c-0.02,0-0.02-0.01-0.02-0.03
		c0-0.03,0-0.06-0.01-0.1c-0.01-0.04-0.04-0.08-0.17-0.1c-0.09-0.01-0.44-0.02-0.49-0.02c-0.02,0-0.02,0.01-0.02,0.02v0.26
		c0,0.11,0,0.47,0,0.54c0.01,0.21,0.07,0.25,0.39,0.25c0.08,0,0.24,0,0.33-0.03c0.08-0.04,0.13-0.09,0.15-0.22
		c0.01-0.04,0.01-0.05,0.03-0.05c0.02,0,0.02,0.03,0.02,0.05c0,0.02-0.03,0.24-0.04,0.3c-0.02,0.08-0.06,0.08-0.18,0.08
		c-0.24,0-0.43-0.01-0.57-0.01c-0.14-0.01-0.22-0.01-0.27-0.01c-0.01,0-0.07,0-0.14,0c-0.06,0-0.14,0.01-0.19,0.01
		c-0.03,0-0.05-0.01-0.05-0.03c0-0.01,0.01-0.03,0.03-0.03c0.03,0,0.07-0.01,0.1-0.01c0.06-0.01,0.07-0.07,0.09-0.17
		c0.02-0.13,0.02-0.38,0.02-0.68V36.6z"/>
	<g>
		<path class="st0" d="M8.03,39.08C3.6,39.08,0,35.48,0,31.05s3.6-8.03,8.03-8.03c4.43,0,8.03,3.6,8.03,8.03S12.46,39.08,8.03,39.08
			 M8.03,23.38c-4.23,0-7.67,3.44-7.67,7.67c0,4.23,3.44,7.67,7.67,7.67c4.23,0,7.67-3.44,7.67-7.67
			C15.7,26.82,12.26,23.38,8.03,23.38"/>
		<rect x="4.97" y="23.75" class="st0" width="0.36" height="14.51"/>
		<rect x="7.75" y="34.17" class="st0" width="0.36" height="4.63"/>
		<rect x="0.18" y="31.17" class="st0" width="15.72" height="0.36"/>
		
			<rect x="2.89" y="26.5" transform="matrix(0.731 -0.6824 0.6824 0.731 -19.1717 9.9782)" class="st0" width="0.36" height="5.61"/>
		
			<rect x="10.66" y="33.47" transform="matrix(0.731 -0.6824 0.6824 0.731 -21.5671 17.0461)" class="st0" width="0.36" height="4.82"/>
		
			<rect x="0.56" y="33.01" transform="matrix(0.7071 -0.7071 0.7071 0.7071 -22.5435 11.9461)" class="st0" width="5.19" height="0.36"/>
		
			<rect x="3.54" y="27.7" transform="matrix(0.7071 -0.7071 0.7071 0.7071 -17.2341 14.1453)" class="st0" width="9.83" height="0.36"/>
		
			<rect x="6.45" y="28.23" transform="matrix(0.7071 -0.7071 0.7071 0.7071 -16.9761 15.8265)" class="st0" width="8.34" height="0.36"/>
		
			<rect x="6.41" y="34.95" transform="matrix(0.706 -0.7082 0.7082 0.706 -21.4225 18.6477)" class="st0" width="10.68" height="0.36"/>
		<rect x="5.29" y="29.13" class="st0" width="10.4" height="0.36"/>
		<rect x="5.29" y="32.57" class="st0" width="10.44" height="0.36"/>
		<rect x="5.29" y="33.99" class="st0" width="10.03" height="0.36"/>
		<rect x="5.29" y="27.08" class="st0" width="9.62" height="0.36"/>
		<path class="st0" d="M5.33,26.66l-0.06,0.6l0.48-0.18C5.52,27.08,5.33,26.89,5.33,26.66"/>
		<path class="st0" d="M5.33,28.7l-0.12,0.57l0.54-0.15C5.52,29.12,5.33,28.94,5.33,28.7"/>
		<path class="st0" d="M0.36,30.75l-0.1,0.52l0.52-0.1C0.55,31.17,0.36,30.99,0.36,30.75"/>
		<path class="st0" d="M15.7,30.77l0.06,0.44l-0.46-0.04C15.52,31.17,15.7,30.99,15.7,30.77"/>
		<path class="st0" d="M15.62,29.42l-0.41,0.06c0.2,0,0.36,0.15,0.39,0.34l0,0L15.62,29.42z"/>
		<path class="st0" d="M14.96,27.38l-0.41,0.06c0.17,0,0.3,0.11,0.38,0.27l0.02-0.01L14.96,27.38z"/>
		<path class="st0" d="M15.61,32.26v0.31H15.3C15.47,32.57,15.61,32.43,15.61,32.26"/>
		<path class="st0" d="M12.66,37.17l-0.23,0.18l-0.18-0.23C12.35,37.25,12.53,37.27,12.66,37.17"/>
		<path class="st0" d="M11.37,36.18l-0.21-0.22l0.22-0.21C11.25,35.87,11.25,36.06,11.37,36.18"/>
		<path class="st0" d="M11.17,35.45l-0.25,0.27l-0.24-0.29C10.81,35.58,11.03,35.59,11.17,35.45"/>
		<path class="st0" d="M11.16,36.49l-0.24-0.29l-0.26,0.27C10.81,36.34,11.03,36.34,11.16,36.49"/>
		<path class="st0" d="M10.46,36.17l0.22-0.21l-0.21-0.22C10.58,35.86,10.58,36.05,10.46,36.17"/>
		<path class="st0" d="M0.41,31.97l-0.18-0.55l0.55,0.11C0.56,31.53,0.37,31.72,0.41,31.97"/>
		<path class="st0" d="M5.33,32.15v0.42h0.42C5.52,32.57,5.33,32.38,5.33,32.15"/>
		<path class="st0" d="M5.33,31.95l-0.12-0.57l0.54,0.15C5.52,31.53,5.33,31.72,5.33,31.95"/>
		<path class="st0" d="M7.75,38.27l0.03,0.53L7.33,38.7C7.57,38.69,7.75,38.51,7.75,38.27"/>
		<path class="st0" d="M5.33,33.35v-0.42h0.42C5.52,32.93,5.33,33.11,5.33,33.35"/>
		<path class="st0" d="M5.33,34.76v-0.42h0.42C5.52,34.34,5.33,34.53,5.33,34.76"/>
		<path class="st0" d="M5.33,29.9l-0.06-0.55l0.48,0.13C5.52,29.48,5.33,29.67,5.33,29.9"/>
		<path class="st0" d="M8.11,34.76v-0.42h0.42C8.3,34.34,8.11,34.53,8.11,34.76"/>
		<path class="st0" d="M7.75,34.76v-0.42H7.33C7.57,34.34,7.75,34.53,7.75,34.76"/>
		<path class="st0" d="M5.38,30.7l-0.04,0.01l-0.01-0.04C5.34,30.69,5.36,30.71,5.38,30.7"/>
		<path class="st0" d="M5.33,27.85l-0.09-0.63l0.51,0.21C5.52,27.43,5.33,27.62,5.33,27.85"/>
		<path class="st0" d="M5.27,23.71l0.06,0.56c0-0.25,0.17-0.46,0.4-0.53v-0.02H5.27z"/>
		<path class="st0" d="M5.33,33.57v0.42h0.42C5.52,33.99,5.33,33.8,5.33,33.57"/>
		<path class="st0" d="M5.3,30.64c0,0,0.02,0.05,0.05,0.06c0.03,0.01,0.06,0,0.09-0.02l-0.2,0.25L5.3,30.64"/>
		<path class="st0" d="M5.48,31.1l-0.01,0.02c0,0-0.01,0.02,0,0.03c0.01,0.02,0.02,0.02,0.04,0.02c0.02,0-0.01,0.03-0.01,0.03
			l-0.09,0.05L5.3,31.13L5.48,31.1z"/>
		<path class="st0" d="M4.51,31.1l0.01,0.01c0,0,0.02,0.02,0.01,0.04c-0.01,0.02-0.02,0.02-0.04,0.02c-0.02,0,0.01,0.03,0.01,0.03
			l0.09,0.05l0.11-0.12L4.51,31.1z"/>
		<path class="st0" d="M4.49,31.61l0.01-0.01c0,0,0.02-0.02,0.01-0.04c-0.01-0.02-0.02-0.02-0.04-0.02c-0.02,0,0.01-0.03,0.01-0.03
			l0.09-0.05l0.11,0.12L4.49,31.61z"/>
		<path class="st0" d="M8.17,31.1l-0.01,0.02c0,0-0.01,0.02,0,0.04c0.01,0.02,0.02,0.02,0.04,0.02c0.02,0-0.01,0.03-0.01,0.03
			L8.1,31.25l-0.11-0.12L8.17,31.1z"/>
		<path class="st0" d="M10.21,29.05l-0.01,0.02c0,0-0.01,0.02,0,0.04c0.01,0.02,0.02,0.02,0.04,0.02c0.02,0-0.01,0.03-0.01,0.03
			l-0.09,0.05l-0.11-0.12L10.21,29.05z"/>
		<path class="st0" d="M12.26,27l-0.01,0.02c0,0-0.01,0.02,0,0.04c0.01,0.02,0.02,0.02,0.04,0.02c0.02,0-0.01,0.03-0.01,0.03
			l-0.09,0.05l-0.11-0.12L12.26,27z"/>
		<path class="st0" d="M14.55,27l0.01,0.02c0,0,0.01,0.02,0,0.04c-0.01,0.02-0.02,0.02-0.04,0.02c-0.02,0,0.01,0.03,0.01,0.03
			l0.09,0.05l0.11-0.12L14.55,27z"/>
		<path class="st0" d="M15.44,29.05l0.01,0.03c0,0,0.01,0.02,0,0.03c-0.01,0.01-0.02,0.01-0.04,0.01c-0.02,0,0.01,0.03,0.01,0.03
			l0.09,0.05l0.11-0.12L15.44,29.05z"/>
		<path class="st0" d="M9.57,27l-0.01,0.02c0,0-0.01,0.02,0,0.04c0.01,0.02,0.02,0.02,0.04,0.02c0.02,0-0.01,0.03-0.01,0.03
			l-0.09,0.05l-0.11-0.12L9.57,27z"/>
		<path class="st0" d="M7.53,29.05l-0.01,0.02c0,0-0.01,0.02,0,0.04c0.01,0.02,0.02,0.02,0.04,0.02c0.02,0-0.01,0.03-0.01,0.03
			L7.46,29.2l-0.11-0.12L7.53,29.05z"/>
		<path class="st0" d="M6.53,29.56l0.01-0.02c0,0,0.01-0.02,0-0.04c-0.01-0.02-0.02-0.02-0.04-0.02c-0.02,0,0.01-0.03,0.01-0.03
			l0.09-0.05l0.11,0.12L6.53,29.56z"/>
		<path class="st0" d="M9.22,29.56l0.01-0.02c0,0,0.01-0.02,0-0.04c-0.01-0.02-0.04-0.02-0.04-0.02l0.01-0.03l0.09-0.05l0.11,0.12
			L9.22,29.56z"/>
		<path class="st0" d="M15.03,31.61l0.01-0.02c0,0,0.01-0.02,0-0.04C15.03,31.53,15,31.53,15,31.53l0.01-0.03l0.09-0.05l0.11,0.12
			L15.03,31.61z"/>
		<path class="st0" d="M13.64,33l0.01-0.02c0,0,0.01-0.02,0-0.04c-0.01-0.02-0.04-0.02-0.04-0.02l0.01-0.03l0.09-0.05l0.11,0.12
			L13.64,33z"/>
		<path class="st0" d="M12.22,34.42l0.01-0.02c0,0,0.01-0.02,0-0.04c-0.01-0.02-0.04-0.02-0.04-0.02l0.01-0.03l0.09-0.05l0.11,0.12
			L12.22,34.42z"/>
		<path class="st0" d="M9.71,34.42L9.7,34.4c0,0-0.01-0.02,0-0.04c0.01-0.02,0.04-0.02,0.04-0.02l-0.01-0.03l-0.09-0.05l-0.11,0.12
			L9.71,34.42z"/>
		<path class="st0" d="M11.27,27.51l0.01-0.02c0,0,0.01-0.02,0-0.04c-0.01-0.02-0.04-0.02-0.04-0.02l0.01-0.03l0.09-0.05l0.11,0.12
			L11.27,27.51z"/>
		<path class="st0" d="M8.58,27.51l0.01-0.02c0,0,0.01-0.02,0-0.04c-0.01-0.02-0.04-0.02-0.04-0.02l0.01-0.03l0.09-0.05l0.11,0.12
			L8.58,27.51z"/>
		<path class="st0" d="M14.63,32.49l-0.01,0.02c0,0-0.01,0.02,0,0.04c0.01,0.02,0.02,0.02,0.04,0.02c0.02,0-0.01,0.03-0.01,0.03
			l-0.09,0.05l-0.11-0.12L14.63,32.49z"/>
		<path class="st0" d="M13.21,33.91l-0.01,0.02c0,0-0.01,0.02,0,0.04c0.01,0.02,0.02,0.02,0.04,0.02c0.02,0-0.01,0.03-0.01,0.03
			l-0.09,0.05l-0.11-0.12L13.21,33.91z"/>
		<path class="st0" d="M4.88,31l0.03,0.02c0,0,0.02,0.02,0.04,0.01c0.02-0.01,0.02-0.04,0.02-0.04L5,30.99l0.02,0.05l-0.02,0.06
			l-0.08-0.03L4.88,31z"/>
		<path class="st0" d="M4.83,31.73l0.05-0.02c0,0,0.03-0.03,0.06-0.02c0.03,0.01,0.03,0.06,0.03,0.06l0.04-0.01l0.02-0.07L5,31.57
			l-0.11,0.04L4.83,31.73z"/>
		<path class="st0" d="M4.97,24.31c0,0,0-0.11-0.02-0.15c-0.02-0.04-0.07-0.09-0.15-0.07C4.71,24.11,4.77,24,4.77,24l0.19-0.07h0.12
			l-0.06,0.41L4.97,24.31z"/>
		<path class="st0" d="M5.33,38.4v-0.55c0,0.25,0.17,0.46,0.4,0.53v0.02H5.33z"/>
		<path class="st0" d="M4.97,37.79c0,0,0,0.11-0.02,0.15c-0.02,0.04-0.07,0.1-0.17,0.07C4.7,37.98,4.77,38.1,4.77,38.1l0.19,0.07
			h0.12l-0.06-0.41L4.97,37.79z"/>
		<path class="st0" d="M11.95,37.33c0,0,0.09,0.1,0.07,0.19c-0.02,0.09-0.06,0.13-0.13,0.17l0.05,0.08l0.31-0.24l-0.24-0.21
			L11.95,37.33z"/>
		<path class="st0" d="M15.18,33.84c0,0-0.02,0.07-0.08,0.11c-0.03,0.02-0.08,0.04-0.18,0.04l0.03,0.08l0.22,0.01l0.08-0.21
			L15.18,33.84z"/>
		<path class="st0" d="M13.88,32.57c0,0,0.09,0.01,0.16-0.02c0.07-0.03,0.15-0.11,0.15-0.11l0.03,0.02l-0.09,0.18l-0.24-0.03
			L13.88,32.57z"/>
		<path class="st0" d="M12.46,33.99c0,0,0.1,0.01,0.17-0.03c0.07-0.03,0.15-0.11,0.15-0.11l0.03,0.02l-0.09,0.18l-0.24-0.03
			L12.46,33.99z"/>
		<path class="st0" d="M9.47,29.13c0,0,0.09,0.01,0.16-0.03c0.07-0.03,0.15-0.11,0.15-0.11l0.03,0.02L9.72,29.2l-0.24-0.03
			L9.47,29.13z"/>
		<path class="st0" d="M11.52,27.08c0,0,0.09,0.01,0.16-0.03c0.07-0.03,0.15-0.11,0.15-0.11l0.03,0.02l-0.09,0.18l-0.24-0.03
			L11.52,27.08z"/>
		<path class="st0" d="M8.83,27.08c0,0,0.09,0,0.16-0.03c0.07-0.03,0.15-0.11,0.15-0.11l0.03,0.02l-0.09,0.18l-0.24-0.03L8.83,27.08
			z"/>
		<path class="st0" d="M6.78,29.13c0,0,0.09,0,0.16-0.03c0.07-0.03,0.15-0.11,0.15-0.11l0.03,0.02L7.03,29.2l-0.24-0.03L6.78,29.13z
			"/>
		<path class="st0" d="M7.42,31.17c0,0,0.09,0,0.16-0.03c0.07-0.03,0.15-0.11,0.15-0.11l0.03,0.02l-0.09,0.18l-0.24-0.03L7.42,31.17
			z"/>
		<path class="st0" d="M14.38,32.93c0,0-0.09-0.01-0.16,0.02c-0.07,0.03-0.15,0.11-0.15,0.11l-0.03-0.02l0.09-0.18l0.24,0.03
			L14.38,32.93z"/>
		<path class="st0" d="M12.96,34.34c0,0-0.09-0.01-0.16,0.02c-0.07,0.03-0.15,0.11-0.15,0.11l-0.03-0.02l0.09-0.18l0.24,0.03
			L12.96,34.34z"/>
		<path class="st0" d="M9.97,29.48c0,0-0.09-0.01-0.16,0.02c-0.07,0.03-0.15,0.11-0.15,0.11l-0.03-0.02l0.09-0.18l0.24,0.03
			L9.97,29.48z"/>
		<path class="st0" d="M9.33,27.43c0,0-0.1-0.01-0.17,0.03c-0.07,0.03-0.15,0.11-0.15,0.11l-0.03-0.02l0.09-0.18l0.24,0.03
			L9.33,27.43z"/>
		<path class="st0" d="M7.28,29.48c0,0-0.09-0.01-0.17,0.03c-0.07,0.03-0.15,0.11-0.15,0.11l-0.03-0.02l0.09-0.18l0.24,0.03
			L7.28,29.48z"/>
		<path class="st0" d="M12.02,27.43c0,0-0.09-0.01-0.17,0.03c-0.07,0.03-0.15,0.11-0.15,0.11l-0.03-0.02l0.09-0.18L12,27.39
			L12.02,27.43z"/>
		<path class="st0" d="M15.53,31.6c0,0,0.03-0.04,0.09-0.02c0.06,0.02,0.06,0.07,0.06,0.07h0.04l0.01-0.17l-0.2-0.03
			C15.53,31.46,15.49,31.56,15.53,31.6"/>
		<path class="st0" d="M15.22,32.93c0,0,0.13-0.01,0.17,0.07c0.04,0.07,0.02,0.15,0.01,0.18c-0.01,0.03,0.1-0.02,0.1-0.02l0.12-0.35
			l-0.44-0.01L15.22,32.93z"/>
		<path class="st0" d="M14.79,34.34c0,0,0.07,0.01,0.09,0.06c0.02,0.06-0.01,0.12-0.01,0.12l0.09,0.03l0.13-0.23l-0.23-0.12
			L14.79,34.34z"/>
		<path class="st0" d="M13.39,25.88c0,0,0.05-0.05,0.14-0.06c0.09-0.01,0.15,0.05,0.17,0.07c0.02,0.02,0.03-0.03,0.03-0.03
			l-0.16-0.2h-0.13L13.39,25.88z"/>
		<path class="st0" d="M9.04,34.34c0,0,0.06,0,0.12,0.03c0.06,0.03,0.08,0.05,0.08,0.05l0.06-0.07L9.2,34.21L9.04,34.34z"/>
		<path class="st0" d="M8.11,38.44c0,0,0,0.03,0.01,0.03c0.02,0.01,0.03,0,0.04-0.01l0.01,0.07l-0.05,0.04L8.04,38.5L8.11,38.44z"/>
		<path class="st0" d="M8.45,38.68c0,0-0.01,0.01,0,0.02c0.01,0.01,0.02,0.01,0.02,0.01l-0.02,0.03l-0.09,0.02l0-0.1L8.45,38.68z"/>
		<path class="st0" d="M1.7,34.88c0,0-0.11,0.12-0.1,0.24c0,0.12,0.06,0.2,0.07,0.22c0.01,0.02-0.12,0.05-0.12,0.05L1.26,35
			C1.26,35,1.6,34.85,1.7,34.88"/>
		<path class="st0" d="M1.22,34.59c0,0,0.04,0.06,0.1,0.07c0.06,0.01,0.14-0.03,0.17-0.06l0.02,0.16L1.35,35L1.11,34.7L1.22,34.59z"
			/>
		<path class="st0" d="M1.09,27.79c0,0,0.03-0.08,0.12-0.1c0.05-0.01,0.12,0,0.14,0.03c0.03,0.03,0.05-0.18,0.05-0.18l-0.26-0.2
			C1.14,27.34,1,27.7,1.09,27.79"/>
		<path class="st0" d="M1.47,27.33c0,0-0.04-0.04-0.05-0.1c0-0.06,0.03-0.12,0.03-0.12l-0.07-0.04l-0.11,0.12l0.03,0.16L1.47,27.33z
			"/>
		<path class="st0" d="M13.07,25.27c0,0,0.1,0.1,0.1,0.22c-0.01,0.14-0.12,0.24-0.12,0.24l0.14,0.01l0.26-0.33l-0.33-0.23
			L13.07,25.27z"/>
		<path class="st0" d="M11.9,24.69c0,0,0.08-0.08,0.18-0.08c0.13-0.01,0.22,0.07,0.22,0.07l-0.07-0.16l-0.21-0.12L11.9,24.69z"/>
		<path class="st0" d="M11.59,24.26c0,0,0.05,0.02,0.06,0.11c0,0.08-0.08,0.15-0.08,0.15l0.22-0.06l0.06-0.22L11.59,24.26z"/>
	</g>
</g>
</svg>
